<svg xmlns="http://www.w3.org/2000/svg" width="25" height="24" viewBox="0 0 25 24" fill="none">
<g clip-path="url(#clip0_8757_6126)">
<path d="M24.0163 12.2763C24.0163 11.4605 23.9501 10.6404 23.809 9.83789H12.4902V14.4589H18.972C18.703 15.9492 17.8388 17.2676 16.5733 18.1054V21.1037H20.4403C22.7111 19.0137 24.0163 15.9272 24.0163 12.2763Z" fill="#4285F4"/>
<path d="M12.4891 24.0013C15.7256 24.0013 18.455 22.9387 20.4436 21.1044L16.5766 18.106C15.5007 18.838 14.1118 19.2525 12.4935 19.2525C9.36291 19.2525 6.70849 17.1404 5.75607 14.3008H1.76562V17.3917C3.80274 21.4439 7.95192 24.0013 12.4891 24.0013Z" fill="#34A853"/>
<path d="M5.75277 14.3007C5.25011 12.8103 5.25011 11.1965 5.75277 9.70618V6.61523H1.76674C0.0647337 10.006 0.0647337 14.0009 1.76674 17.3916L5.75277 14.3007Z" fill="#FBBC04"/>
<path d="M12.4891 4.74966C14.1999 4.7232 15.8534 5.36697 17.0925 6.54867L20.5185 3.12262C18.3491 1.0855 15.4698 -0.034466 12.4891 0.000808666C7.95192 0.000808666 3.80274 2.55822 1.76562 6.61481L5.75166 9.70575C6.69967 6.86173 9.3585 4.74966 12.4891 4.74966Z" fill="#EA4335"/>
</g>
<defs>
<clipPath id="clip0_8757_6126">
<rect width="24" height="24" fill="white" transform="translate(0.25)"/>
</clipPath>
</defs>
</svg>