<svg width="24" height="24" viewBox="0 0 24 24" fill="none" xmlns="http://www.w3.org/2000/svg">
<rect y="3.42871" width="24" height="17.1429" rx="2" fill="white"/>
<mask id="mask0_7838_10023" style="mask-type:luminance" maskUnits="userSpaceOnUse" x="0" y="3" width="24" height="18">
<rect y="3.42871" width="24" height="17.1429" rx="2" fill="white"/>
</mask>
<g mask="url(#mask0_7838_10023)">
<path fill-rule="evenodd" clip-rule="evenodd" d="M24 3.42871H0V4.57157H24V3.42871ZM24 5.71443H0V6.85728H24V5.71443ZM0 8.00014H24V9.143H0V8.00014ZM24 10.2859H0V11.4287H24V10.2859ZM0 12.5716H24V13.7144H0V12.5716ZM24 14.8573H0V16.0001H24V14.8573ZM0 17.143H24V18.2859H0V17.143ZM24 19.4287H0V20.5716H24V19.4287Z" fill="#D02F44"/>
<rect y="3.42871" width="10.2857" height="8" fill="#46467F"/>
<g filter="url(#filter0_d_7838_10023)">
<path fill-rule="evenodd" clip-rule="evenodd" d="M2.28544 5.14272C2.28544 5.45831 2.0296 5.71415 1.71401 5.71415C1.39842 5.71415 1.14258 5.45831 1.14258 5.14272C1.14258 4.82713 1.39842 4.57129 1.71401 4.57129C2.0296 4.57129 2.28544 4.82713 2.28544 5.14272ZM4.57115 5.14272C4.57115 5.45831 4.31531 5.71415 3.99972 5.71415C3.68413 5.71415 3.42829 5.45831 3.42829 5.14272C3.42829 4.82713 3.68413 4.57129 3.99972 4.57129C4.31531 4.57129 4.57115 4.82713 4.57115 5.14272ZM6.28544 5.71415C6.60103 5.71415 6.85686 5.45831 6.85686 5.14272C6.85686 4.82713 6.60103 4.57129 6.28544 4.57129C5.96984 4.57129 5.71401 4.82713 5.71401 5.14272C5.71401 5.45831 5.96984 5.71415 6.28544 5.71415ZM9.14258 5.14272C9.14258 5.45831 8.88674 5.71415 8.57115 5.71415C8.25556 5.71415 7.99972 5.45831 7.99972 5.14272C7.99972 4.82713 8.25556 4.57129 8.57115 4.57129C8.88674 4.57129 9.14258 4.82713 9.14258 5.14272ZM2.85686 6.857C3.17246 6.857 3.42829 6.60117 3.42829 6.28558C3.42829 5.96998 3.17246 5.71415 2.85686 5.71415C2.54127 5.71415 2.28544 5.96998 2.28544 6.28558C2.28544 6.60117 2.54127 6.857 2.85686 6.857ZM5.71401 6.28558C5.71401 6.60117 5.45817 6.857 5.14258 6.857C4.82699 6.857 4.57115 6.60117 4.57115 6.28558C4.57115 5.96998 4.82699 5.71415 5.14258 5.71415C5.45817 5.71415 5.71401 5.96998 5.71401 6.28558ZM7.42829 6.857C7.74388 6.857 7.99972 6.60117 7.99972 6.28558C7.99972 5.96998 7.74388 5.71415 7.42829 5.71415C7.1127 5.71415 6.85686 5.96998 6.85686 6.28558C6.85686 6.60117 7.1127 6.857 7.42829 6.857ZM9.14258 7.42843C9.14258 7.74402 8.88674 7.99986 8.57115 7.99986C8.25556 7.99986 7.99972 7.74402 7.99972 7.42843C7.99972 7.11284 8.25556 6.857 8.57115 6.857C8.88674 6.857 9.14258 7.11284 9.14258 7.42843ZM6.28544 7.99986C6.60103 7.99986 6.85686 7.74402 6.85686 7.42843C6.85686 7.11284 6.60103 6.857 6.28544 6.857C5.96984 6.857 5.71401 7.11284 5.71401 7.42843C5.71401 7.74402 5.96984 7.99986 6.28544 7.99986ZM4.57115 7.42843C4.57115 7.74402 4.31531 7.99986 3.99972 7.99986C3.68413 7.99986 3.42829 7.74402 3.42829 7.42843C3.42829 7.11284 3.68413 6.857 3.99972 6.857C4.31531 6.857 4.57115 7.11284 4.57115 7.42843ZM1.71401 7.99986C2.0296 7.99986 2.28544 7.74402 2.28544 7.42843C2.28544 7.11284 2.0296 6.857 1.71401 6.857C1.39842 6.857 1.14258 7.11284 1.14258 7.42843C1.14258 7.74402 1.39842 7.99986 1.71401 7.99986ZM3.42829 8.57129C3.42829 8.88688 3.17246 9.14272 2.85686 9.14272C2.54127 9.14272 2.28544 8.88688 2.28544 8.57129C2.28544 8.2557 2.54127 7.99986 2.85686 7.99986C3.17246 7.99986 3.42829 8.2557 3.42829 8.57129ZM5.14258 9.14272C5.45817 9.14272 5.71401 8.88688 5.71401 8.57129C5.71401 8.2557 5.45817 7.99986 5.14258 7.99986C4.82699 7.99986 4.57115 8.2557 4.57115 8.57129C4.57115 8.88688 4.82699 9.14272 5.14258 9.14272ZM7.99972 8.57129C7.99972 8.88688 7.74388 9.14272 7.42829 9.14272C7.1127 9.14272 6.85686 8.88688 6.85686 8.57129C6.85686 8.2557 7.1127 7.99986 7.42829 7.99986C7.74388 7.99986 7.99972 8.2557 7.99972 8.57129ZM8.57115 10.2856C8.88674 10.2856 9.14258 10.0297 9.14258 9.71415C9.14258 9.39856 8.88674 9.14272 8.57115 9.14272C8.25556 9.14272 7.99972 9.39856 7.99972 9.71415C7.99972 10.0297 8.25556 10.2856 8.57115 10.2856ZM6.85686 9.71415C6.85686 10.0297 6.60103 10.2856 6.28544 10.2856C5.96984 10.2856 5.71401 10.0297 5.71401 9.71415C5.71401 9.39856 5.96984 9.14272 6.28544 9.14272C6.60103 9.14272 6.85686 9.39856 6.85686 9.71415ZM3.99972 10.2856C4.31531 10.2856 4.57115 10.0297 4.57115 9.71415C4.57115 9.39856 4.31531 9.14272 3.99972 9.14272C3.68413 9.14272 3.42829 9.39856 3.42829 9.71415C3.42829 10.0297 3.68413 10.2856 3.99972 10.2856ZM2.28544 9.71415C2.28544 10.0297 2.0296 10.2856 1.71401 10.2856C1.39842 10.2856 1.14258 10.0297 1.14258 9.71415C1.14258 9.39856 1.39842 9.14272 1.71401 9.14272C2.0296 9.14272 2.28544 9.39856 2.28544 9.71415Z" fill="url(#paint0_linear_7838_10023)"/>
</g>
</g>
<defs>
<filter id="filter0_d_7838_10023" x="1.14258" y="4.57129" width="8" height="6.71436" filterUnits="userSpaceOnUse" color-interpolation-filters="sRGB">
<feFlood flood-opacity="0" result="BackgroundImageFix"/>
<feColorMatrix in="SourceAlpha" type="matrix" values="0 0 0 0 0 0 0 0 0 0 0 0 0 0 0 0 0 0 127 0" result="hardAlpha"/>
<feOffset dy="1"/>
<feColorMatrix type="matrix" values="0 0 0 0 0 0 0 0 0 0 0 0 0 0 0 0 0 0 0.06 0"/>
<feBlend mode="normal" in2="BackgroundImageFix" result="effect1_dropShadow_7838_10023"/>
<feBlend mode="normal" in="SourceGraphic" in2="effect1_dropShadow_7838_10023" result="shape"/>
</filter>
<linearGradient id="paint0_linear_7838_10023" x1="1.14258" y1="4.57129" x2="1.14258" y2="10.2856" gradientUnits="userSpaceOnUse">
<stop stop-color="white"/>
<stop offset="1" stop-color="#F0F0F0"/>
</linearGradient>
</defs>
</svg>
