<svg width="24" height="24" viewBox="0 0 24 24" fill="none" xmlns="http://www.w3.org/2000/svg">
<rect y="3.42871" width="24" height="17.1429" rx="2" fill="white"/>
<mask id="mask0_7838_10167" style="mask-type:luminance" maskUnits="userSpaceOnUse" x="0" y="3" width="24" height="18">
<rect y="3.42871" width="24" height="17.1429" rx="2" fill="white"/>
</mask>
<g mask="url(#mask0_7838_10167)">
<rect y="3.42871" width="24" height="17.1429" fill="#19BFBF"/>
<path fill-rule="evenodd" clip-rule="evenodd" d="M11.9996 18.2858C15.4711 18.2858 18.2853 15.4716 18.2853 12.0001C18.2853 8.52857 15.4711 5.71436 11.9996 5.71436C8.52808 5.71436 5.71387 8.52857 5.71387 12.0001C5.71387 15.4716 8.52808 18.2858 11.9996 18.2858ZM17.111 12.5715C16.8989 14.4908 15.6306 16.0918 13.9001 16.7803C14.4573 15.6455 14.7829 14.167 14.8456 12.5715H17.111ZM13.7016 12.5715C13.6181 14.4993 13.1148 16.203 12.33 17.1325C12.2208 17.1394 12.1106 17.1429 11.9996 17.1429C11.8886 17.1429 11.7784 17.1394 11.6691 17.1325C10.8844 16.203 10.381 14.4993 10.2976 12.5715H13.7016ZM9.1536 12.5715C9.2163 14.167 9.54181 15.6455 10.099 16.7803C8.3686 16.0918 7.10028 14.4908 6.88811 12.5715H9.1536ZM10.2976 11.4286H13.7016C13.6181 9.50089 13.1148 7.79713 12.33 6.86766C12.2208 6.86073 12.1106 6.85721 11.9996 6.85721C11.8886 6.85721 11.7784 6.86073 11.6691 6.86766C10.8844 7.79713 10.381 9.50089 10.2976 11.4286ZM10.099 7.2198C9.54181 8.35468 9.2163 9.83319 9.1536 11.4286H6.88811C7.10028 9.50936 8.3686 7.90839 10.099 7.2198ZM17.111 11.4286H14.8456C14.7829 9.83319 14.4573 8.35468 13.9001 7.2198C15.6306 7.90839 16.8989 9.50935 17.111 11.4286Z" fill="white"/>
</g>
</svg>
