<svg xmlns="http://www.w3.org/2000/svg" width="34" height="32" viewBox="0 0 34 32" fill="none">
    <path
        d="M7.74123 16.1039C9.92925 16.3279 16.0013 16.4119 13.0733 22.3399C10.6413 27.268 13.3733 32 18.1973 32C23.0214 32 26.5934 27.644 23.9054 22.9479C21.7854 19.2439 22.7054 15.9559 26.6654 15.7199C33.0455 15.3399 34.8855 10.3558 32.7134 6.97578C30.6854 3.81975 26.8294 3.27575 23.0374 7.08778C20.3933 9.7438 17.4573 8.50779 14.1653 3.01574C11.7213 -1.06429 5.44121 -0.82029 2.52118 2.63974C-1.99086 7.98779 1.21317 15.4359 7.74123 16.1039Z"
        fill="url(#paint0_linear_7853_1965)" />
    <defs>
        <linearGradient id="paint0_linear_7853_1965" x1="0.416016" y1="0" x2="33.5852" y2="32"
            gradientUnits="userSpaceOnUse">
            <stop stop-color="#FF9646" />
            <stop offset="1" stop-color="#FA6432" />
        </linearGradient>
    </defs>
</svg>