<svg width="20" height="20" viewBox="0 0 20 20" fill="none" xmlns="http://www.w3.org/2000/svg">
<g id="camera-02">
<g id="Icon">
<path d="M1.66602 6.4175C1.66602 5.17404 2.67404 4.16602 3.9175 4.16602C4.56357 4.16602 5.13715 3.7526 5.34146 3.13968L5.41602 2.91602C5.45117 2.81054 5.46875 2.7578 5.48756 2.71102C5.72772 2.11362 6.29051 1.70799 6.93319 1.66906C6.98353 1.66602 7.03912 1.66602 7.1503 1.66602H12.8484C12.9596 1.66602 13.0152 1.66602 13.0655 1.66906C13.7082 1.70799 14.271 2.11362 14.5111 2.71102C14.5299 2.7578 14.5475 2.81054 14.5827 2.91602L14.6572 3.13968C14.8615 3.7526 15.4351 4.16602 16.0812 4.16602C17.3247 4.16602 18.3327 5.17404 18.3327 6.4175V13.4993C18.3327 14.8995 18.3327 15.5995 18.0602 16.1343C17.8205 16.6047 17.4381 16.9872 16.9677 17.2269C16.4329 17.4993 15.7328 17.4993 14.3327 17.4993H5.66602C4.26588 17.4993 3.56582 17.4993 3.03104 17.2269C2.56063 16.9872 2.17818 16.6047 1.9385 16.1343C1.66602 15.5995 1.66602 14.8995 1.66602 13.4993V6.4175Z" stroke="#21272D" stroke-width="2" stroke-linecap="round" stroke-linejoin="round"/>
<path d="M9.99935 13.7493C12.0704 13.7493 13.7493 12.0704 13.7493 9.99935C13.7493 7.92828 12.0704 6.24935 9.99935 6.24935C7.92828 6.24935 6.24935 7.92828 6.24935 9.99935C6.24935 12.0704 7.92828 13.7493 9.99935 13.7493Z" stroke="#21272D" stroke-width="2" stroke-linecap="round" stroke-linejoin="round"/>
</g>
</g>
</svg>
