<svg xmlns="http://www.w3.org/2000/svg" viewBox="0 0 24 24" width="24px" height="24px">
    <path
        d="M 12 2 C 6.4919555 2 2 6.4919596 2 12 C 2 17.50804 6.4919555 22 12 22 C 17.508045 22 22 17.50804 22 12 C 22 6.4919596 17.508045 2 12 2 z M 15.75 9 C 16.069875 9 16.390266 9.1212344 16.634766 9.3652344 C 17.123766 9.8532344 17.122766 10.646766 16.634766 11.134766 L 11.884766 15.884766 C 11.640766 16.128766 11.32 16.25 11 16.25 C 10.68 16.25 10.359234 16.128766 10.115234 15.884766 L 7.3554688 13.123047 C 6.8674688 12.635047 6.8674688 11.844469 7.3554688 11.355469 C 7.8434687 10.866469 8.6340469 10.867469 9.1230469 11.355469 L 11 13.232422 L 14.865234 9.3652344 C 15.109234 9.1212344 15.430125 9 15.75 9 z" />
</svg>