<svg width="25" height="25" viewBox="0 0 25 25" fill="none">
    <g id="home-smile">
    <path
        id="Icon"
        d="M8.62602 14.5007C9.07006 16.2259 10.6362 17.5007 12.5 17.5007C14.3638 17.5007 15.9299 16.2259 16.374 14.5007M11.5177 3.26473L4.73539 8.53986C4.28202 8.89248 4.05534 9.06879 3.89203 9.28959C3.74737 9.48518 3.6396 9.70552 3.57403 9.93978C3.5 10.2043 3.5 10.4914 3.5 11.0658V18.3007C3.5 19.4208 3.5 19.9809 3.71799 20.4087C3.90973 20.785 4.21569 21.091 4.59202 21.2827C5.01984 21.5007 5.57989 21.5007 6.7 21.5007H18.3C19.4201 21.5007 19.9802 21.5007 20.408 21.2827C20.7843 21.091 21.0903 20.785 21.282 20.4087C21.5 19.9809 21.5 19.4208 21.5 18.3007V11.0658C21.5 10.4914 21.5 10.2043 21.426 9.93978C21.3604 9.70552 21.2526 9.48518 21.108 9.28959C20.9447 9.06879 20.718 8.89248 20.2646 8.53986L13.4823 3.26473C13.131 2.99148 12.9553 2.85485 12.7613 2.80233C12.5902 2.75599 12.4098 2.75599 12.2387 2.80233C12.0447 2.85485 11.869 2.99148 11.5177 3.26473Z"
        stroke="#878D93"
        stroke-width="2"
        stroke-linecap="round"
        stroke-linejoin="round"
    />
    </g>
</svg>