<svg width="20" height="20" viewBox="0 0 20 20" fill="none" xmlns="http://www.w3.org/2000/svg">
<g id="image-03">
<path id="Icon" d="M3.55943 17.2733L9.05654 11.7761C9.38656 11.4461 9.55156 11.2811 9.74184 11.2193C9.9092 11.1649 10.0895 11.1649 10.2569 11.2193C10.4471 11.2811 10.6121 11.4461 10.9422 11.7761L16.4026 17.2366M11.666 12.5L14.0565 10.1095C14.3866 9.77946 14.5516 9.61445 14.7418 9.55263C14.9092 9.49825 15.0895 9.49825 15.2569 9.55263C15.4471 9.61445 15.6121 9.77946 15.9422 10.1095L18.3327 12.5M8.33268 7.5C8.33268 8.42047 7.58649 9.16667 6.66602 9.16667C5.74554 9.16667 4.99935 8.42047 4.99935 7.5C4.99935 6.57953 5.74554 5.83333 6.66602 5.83333C7.58649 5.83333 8.33268 6.57953 8.33268 7.5ZM5.66602 17.5H14.3327C15.7328 17.5 16.4329 17.5 16.9677 17.2275C17.4381 16.9878 17.8205 16.6054 18.0602 16.135C18.3327 15.6002 18.3327 14.9001 18.3327 13.5V6.5C18.3327 5.09987 18.3327 4.3998 18.0602 3.86502C17.8205 3.39462 17.4381 3.01217 16.9677 2.77248C16.4329 2.5 15.7328 2.5 14.3327 2.5H5.66602C4.26588 2.5 3.56582 2.5 3.03104 2.77248C2.56063 3.01217 2.17818 3.39462 1.9385 3.86502C1.66602 4.3998 1.66602 5.09987 1.66602 6.5V13.5C1.66602 14.9001 1.66602 15.6002 1.9385 16.135C2.17818 16.6054 2.56063 16.9878 3.03104 17.2275C3.56582 17.5 4.26588 17.5 5.66602 17.5Z" stroke="#21272D" stroke-width="2" stroke-linecap="round" stroke-linejoin="round"/>
</g>
</svg>
