<svg
    xmlns="http://www.w3.org/2000/svg"
    width="17"
    height="16"
    viewBox="0 0 17 16"
    fill="none">
    <path
    d="M4.0514 7.55453L4.05142 7.55453C4.1142 7.56096 4.1892 7.56752 4.27332 7.57489C4.51822 7.59632 4.84037 7.62452 5.1629 7.67574C5.59985 7.74514 6.10343 7.86485 6.53513 8.1041C6.97798 8.34952 7.3732 8.73865 7.50904 9.33745C7.64046 9.9168 7.50658 10.5982 7.11482 11.3914C6.56874 12.498 6.62335 13.532 7.02589 14.2694C7.42578 15.002 8.19807 15.5 9.22854 15.5C10.2876 15.5 11.1756 15.0225 11.6529 14.3329C12.1177 13.6614 12.2299 12.7379 11.6486 11.7223L11.6486 11.7223C11.0811 10.7307 10.8638 9.69977 11.1606 8.85154C11.4741 7.95577 12.298 7.42844 13.4328 7.36081L13.4329 7.36081C14.8982 7.27353 15.753 6.66876 16.1446 5.98731C16.5406 5.29812 16.5123 4.45283 16.066 3.75819L16.4702 3.49842L16.066 3.75819C15.6324 3.08351 15.037 2.73002 14.3824 2.70912C13.7167 2.68787 12.8871 3.0078 12.003 3.89651L12.0029 3.89664C11.6278 4.27342 11.2109 4.54398 10.7486 4.6577C10.2787 4.77328 9.80577 4.71589 9.34704 4.50969C8.46233 4.11199 7.6176 3.15617 6.78367 1.76494L6.78359 1.76481C6.28073 0.925326 5.37217 0.50735 4.38707 0.500095C3.39612 0.492797 2.39502 0.90484 1.77263 1.64229L4.0514 7.55453ZM4.0514 7.55453C1.18861 7.26158 -0.225241 4.01041 1.77259 1.64235L4.0514 7.55453Z"
    stroke="#FF9646"
    />
</svg>