<svg xmlns="http://www.w3.org/2000/svg" width="45" height="45" viewBox="0 0 45 45" fill="none">
    <path
        d="M24.334 9.66732C24.334 8.6548 23.5132 7.83398 22.5007 7.83398C21.4881 7.83398 20.6673 8.6548 20.6673 9.66732V20.6673H9.66732C8.6548 20.6673 7.83398 21.4881 7.83398 22.5007C7.83398 23.5132 8.6548 24.334 9.66732 24.334H20.6673V35.334C20.6673 36.3465 21.4881 37.1673 22.5007 37.1673C23.5132 37.1673 24.334 36.3465 24.334 35.334V24.334H35.334C36.3465 24.334 37.1673 23.5132 37.1673 22.5007C37.1673 21.4881 36.3465 20.6673 35.334 20.6673H24.334V9.66732Z"
        fill="#FF9646" />
</svg>