<svg width="25" height="25" viewBox="0 0 25 25" fill="none">
    <g id="message-smile-circle">
    <path
        id="Icon"
        d="M9.49865 14.5C9.49865 14.5 10.8111 16 12.9986 16C15.1861 16 16.4986 14.5 16.4986 14.5M15.7486 9.5H15.7586M10.2486 9.5H10.2586M12.9986 20.5C17.6931 20.5 21.4986 16.6944 21.4986 12C21.4986 7.30558 17.6931 3.5 12.9986 3.5C8.30423 3.5 4.49865 7.30558 4.49865 12C4.49865 12.95 4.6545 13.8636 4.94202 14.7166C5.05022 15.0376 5.10432 15.1981 5.11408 15.3214C5.12371 15.4432 5.11643 15.5286 5.0863 15.6469C5.0558 15.7668 4.98844 15.8915 4.85374 16.1408L3.21808 19.1684C2.98477 19.6002 2.86812 19.8161 2.89423 19.9828C2.91697 20.1279 3.0024 20.2557 3.12782 20.3322C3.27183 20.4201 3.51595 20.3948 4.00419 20.3444L9.12521 19.815C9.28029 19.799 9.35783 19.791 9.42851 19.7937C9.49802 19.7963 9.54709 19.8029 9.61488 19.8185C9.6838 19.8344 9.77047 19.8678 9.9438 19.9345C10.8919 20.2998 11.9219 20.5 12.9986 20.5ZM16.2486 9.5C16.2486 9.77614 16.0248 10 15.7486 10C15.4725 10 15.2486 9.77614 15.2486 9.5C15.2486 9.22386 15.4725 9 15.7486 9C16.0248 9 16.2486 9.22386 16.2486 9.5ZM10.7486 9.5C10.7486 9.77614 10.5248 10 10.2486 10C9.97251 10 9.74865 9.77614 9.74865 9.5C9.74865 9.22386 9.97251 9 10.2486 9C10.5248 9 10.7486 9.22386 10.7486 9.5Z"
        stroke="#878D93"
        stroke-width="2"
        stroke-linecap="round"
        stroke-linejoin="round"
    />
    </g>
</svg>