<svg width="24" height="25" viewBox="0 0 24 25" fill="none">
    <g id="user-02">
    <g id="Solid">
        <path
        fill-rule="evenodd"
        clip-rule="evenodd"
        d="M3.418 18.8031C5.39096 16.192 8.49873 14.5 11.9999 14.5C15.501 14.5 18.6087 16.192 20.5817 18.8031C20.5906 18.8149 20.5996 18.8268 20.6086 18.8386C20.7782 19.063 20.9601 19.3035 21.0901 19.5356C21.2474 19.8165 21.364 20.1414 21.3568 20.5366C21.351 20.8542 21.2548 21.1516 21.1379 21.3864C21.021 21.6212 20.8418 21.8772 20.5918 22.0734C20.2585 22.335 19.8956 22.4276 19.5732 22.4662C19.2904 22.5001 18.9552 22.5001 18.6182 22.5C18.603 22.5 18.5878 22.5 18.5726 22.5H5.42708C5.4119 22.5 5.39671 22.5 5.38152 22.5C5.04452 22.5001 4.70934 22.5001 4.42649 22.4662C4.10411 22.4276 3.7412 22.335 3.40787 22.0734C3.15793 21.8772 2.9787 21.6212 2.86183 21.3864C2.74495 21.1516 2.64871 20.8542 2.6429 20.5366C2.63567 20.1414 2.75228 19.8165 2.90961 19.5356C3.0396 19.3035 3.22149 19.063 3.39113 18.8386C3.40012 18.8268 3.40908 18.8149 3.418 18.8031Z"
        fill="#FF9646"
        />
        <path
        fill-rule="evenodd"
        clip-rule="evenodd"
        d="M6.49985 8C6.49985 4.96243 8.96229 2.5 11.9999 2.5C15.0374 2.5 17.4999 4.96243 17.4999 8C17.4999 11.0376 15.0374 13.5 11.9999 13.5C8.96229 13.5 6.49985 11.0376 6.49985 8Z"
        fill="#FF9646"
        />
    </g>
    </g>
</svg>